<?xml version="1.0" encoding="UTF-8"?> <svg xmlns="http://www.w3.org/2000/svg" viewBox="0 0 473.75 236.62"><defs><style>.cls-1,.cls-3{fill:#fff;}.cls-2,.cls-5{fill:#ed3024;}.cls-3,.cls-5{font-size:7.97px;font-family:Effra-Bold, Effra;font-weight:700;letter-spacing:0.02em;}.cls-4{letter-spacing:0.03em;}</style></defs><title>13Asset 1</title><g id="Layer_2" data-name="Layer 2"><g id="Layer_1-2" data-name="Layer 1"><rect class="cls-1" width="236.62" height="236.62"></rect><rect class="cls-2" x="237.14" width="236.62" height="236.62"></rect><circle class="cls-2" cx="118.45" cy="120.66" r="71.81"></circle><path class="cls-1" d="M80.67,156.05h29.85l0-35.9a10.65,10.65,0,0,1,3-7.46,9,9,0,0,1,6.42-2.83,9.22,9.22,0,0,1,7.34,3.93A14.93,14.93,0,0,0,151.4,96.2,39.19,39.19,0,0,0,120,80,38.53,38.53,0,0,0,92.06,92,40.39,40.39,0,0,0,80.7,120.1Z"></path><text class="cls-3" transform="translate(146.08 86.65)">T<tspan class="cls-4" x="5.13" y="0">M</tspan></text><circle class="cls-1" cx="139.69" cy="142.29" r="14.8"></circle><circle class="cls-1" cx="356.92" cy="120.66" r="71.81"></circle><path class="cls-2" d="M319.14,156.05H349l0-35.9a10.7,10.7,0,0,1,3-7.46,9,9,0,0,1,6.42-2.83,9.24,9.24,0,0,1,7.34,3.93A14.92,14.92,0,1,0,389.86,96.2,39.17,39.17,0,0,0,358.46,80,38.53,38.53,0,0,0,330.53,92a40.35,40.35,0,0,0-11.36,28.15Z"></path><text class="cls-5" transform="translate(384.54 86.65)">T<tspan class="cls-4" x="5.13" y="0">M</tspan></text><circle class="cls-2" cx="378.16" cy="142.29" r="14.8"></circle></g></g></svg> 